<?xml version="1.0" encoding="iso-8859-1"?>
<!-- Generator: Adobe Illustrator 19.0.0, SVG Export Plug-In . SVG Version: 6.00 Build 0)  -->
<svg version="1.1" id="Capa_1" xmlns="http://www.w3.org/2000/svg" xmlns:xlink="http://www.w3.org/1999/xlink" x="0px" y="0px"
	 viewBox="0 0 512 512" style="enable-background:new 0 0 512 512;" xml:space="preserve">
<circle style="fill:#2896FF;" cx="256" cy="256" r="256"/>
<path style="fill:#1E73BE;" d="M391.96,218.922l-50.345-50.345c-2.42,4.762-5.159,9.586-8.163,14.452L268.923,118.5v0.002
	C243.075,225.117,109,391.5,109,391.5l118.966,118.966C237.174,511.469,246.524,512,256,512
	c122.676,0,225.179-86.296,250.164-201.49L403,207.346l0,0C399.382,211.27,395.699,215.127,391.96,218.922z"/>
<g>
	<path style="fill:#FFFFFF;" d="M357.769,349.578l-15.539,0.592c-0.77,0.029-41.209,1.718-90.517,10.268
		c78.251,0.62,151.287,18.14,151.287,18.14V207.346c-14.236,15.44-29.47,29.881-45.231,43.339v83.342V349.578z"/>
	<path style="fill:#FFFFFF;" d="M285.077,326.885v12.221c33.219-4.19,56.538-5.079,56.538-5.079v-165.45
		c-12.356,24.314-32.785,50.201-56.538,75.405V326.885z"/>
	<path style="fill:#FFFFFF;" d="M109,391.5c71.077-58.154,159.923-64.615,159.923-64.615V118.5C243.077,225.115,109,391.5,109,391.5
		z"/>
</g>
<g>
</g>
<g>
</g>
<g>
</g>
<g>
</g>
<g>
</g>
<g>
</g>
<g>
</g>
<g>
</g>
<g>
</g>
<g>
</g>
<g>
</g>
<g>
</g>
<g>
</g>
<g>
</g>
<g>
</g>
</svg>
